<svg xmlns="http://www.w3.org/2000/svg" width="24" height="24" fill="none" viewBox="0 0 24 24">
  <mask id="a" width="24" height="24" x="0" y="0" maskUnits="userSpaceOnUse" style="mask-type:alpha">
    <path fill="#D9D9D9" d="M0 0h24v24H0z"/>
  </mask>
  <g mask="url(#a)">
    <path fill="#fff" d="M12 16c-1.1 0-2.042-.392-2.825-1.175C8.392 14.042 8 13.1 8 12s.392-2.042 1.175-2.825C9.958 8.392 10.9 8 12 8s2.042.392 2.825 1.175C15.608 9.958 16 10.9 16 12s-.392 2.042-1.175 2.825C14.042 15.608 13.1 16 12 16Zm0-2c.55 0 1.02-.196 1.412-.588.392-.391.588-.862.588-1.412 0-.55-.196-1.02-.588-1.412A1.926 1.926 0 0 0 12 10c-.55 0-1.02.196-1.412.588A1.926 1.926 0 0 0 10 12c0 .55.196 1.02.588 1.412.391.392.862.588 1.412.588Zm4.525 8c.3-.933.525-1.767.675-2.5.15-.733.267-1.317.35-1.75-.717.7-1.55 1.25-2.5 1.65-.95.4-1.967.6-3.05.6-2.267 0-4.254-.154-5.963-.462-1.708-.309-3.054-.605-4.037-.888v-2.125c.933.3 1.767.525 2.5.675.733.15 1.317.267 1.75.35a7.964 7.964 0 0 1-1.65-2.5A7.78 7.78 0 0 1 4 12c0-2.283.154-4.275.463-5.975.308-1.7.604-3.042.887-4.025h2.125c-.3.933-.53 1.767-.688 2.5-.158.733-.27 1.317-.337 1.75C7.167 5.55 8 5 8.95 4.6 9.9 4.2 10.917 4 12 4c2.283 0 4.275.154 5.975.463 1.7.308 3.042.604 4.025.887v2.125c-.933-.3-1.767-.53-2.5-.688a31.357 31.357 0 0 0-1.75-.337c.7.717 1.25 1.55 1.65 2.5.4.95.6 1.967.6 3.05 0 2.283-.154 4.275-.462 5.975-.309 1.7-.605 3.042-.888 4.025h-2.125ZM12 18c1.667 0 3.083-.583 4.25-1.75C17.417 15.083 18 13.667 18 12c0-1.667-.583-3.083-1.75-4.25C15.083 6.583 13.667 6 12 6c-1.667 0-3.083.583-4.25 1.75C6.583 8.917 6 10.333 6 12c0 1.667.583 3.083 1.75 4.25C8.917 17.417 10.333 18 12 18Z"/>
  </g>
</svg>
