<svg xmlns="http://www.w3.org/2000/svg" width="24" height="24" fill="none" viewBox="0 0 24 24">
  <mask id="a" width="24" height="24" x="0" y="0" maskUnits="userSpaceOnUse" style="mask-type:alpha">
    <path fill="#D9D9D9" d="M0 0h24v24H0z"/>
  </mask>
  <g mask="url(#a)">
    <path fill="#fff" d="M11 5V1h2v4h-2Zm6.65 2.75-1.4-1.4 2.825-2.85 1.4 1.425L17.65 7.75ZM19 13v-2h4v2h-4Zm.075 7.475L16.25 17.65l1.4-1.4 2.85 2.8-1.425 1.425ZM6.35 7.75 3.525 4.925 4.95 3.5l2.8 2.85-1.4 1.4ZM6 19h4.5c.417 0 .77-.146 1.063-.438.291-.291.437-.645.437-1.062 0-.417-.142-.77-.425-1.063a1.405 1.405 0 0 0-1.05-.437H9.25l-.5-1.2c-.233-.55-.6-.988-1.1-1.313A2.966 2.966 0 0 0 6 13c-.833 0-1.542.292-2.125.875A2.893 2.893 0 0 0 3 16c0 .833.292 1.542.875 2.125A2.893 2.893 0 0 0 6 19Zm0 2c-1.383 0-2.563-.488-3.538-1.462C1.487 18.562 1 17.383 1 16s.488-2.563 1.462-3.537C3.438 11.488 4.617 11 6 11c1 0 1.912.27 2.738.813A4.907 4.907 0 0 1 10.575 14c.967 0 1.78.358 2.438 1.075.658.717.987 1.575.987 2.575-.033.95-.387 1.746-1.063 2.388-.675.641-1.487.962-2.437.962H6Zm8-3.35a81.897 81.897 0 0 0-.25-.975 81.897 81.897 0 0 1-.25-.975 4.08 4.08 0 0 0 1.813-1.475A3.84 3.84 0 0 0 16 12c0-1.1-.392-2.042-1.175-2.825C14.042 8.392 13.1 8 12 8c-1 0-1.875.325-2.625.975-.75.65-1.192 1.475-1.325 2.475a18.553 18.553 0 0 0-1.025-.225c-.35-.067-.692-.142-1.025-.225.233-1.467.92-2.667 2.063-3.6C9.204 6.467 10.517 6 12 6c1.667 0 3.083.583 4.25 1.75C17.417 8.917 18 10.333 18 12a5.807 5.807 0 0 1-1.1 3.463A5.979 5.979 0 0 1 14 17.65Z"/>
  </g>
</svg>
