<svg xmlns="http://www.w3.org/2000/svg" width="24" height="24" fill="none" viewBox="0 0 24 24">
  <mask id="a" width="24" height="24" x="0" y="0" maskUnits="userSpaceOnUse" style="mask-type:alpha">
    <path fill="#D9D9D9" d="M0 0h24v24H0z"/>
  </mask>
  <g mask="url(#a)">
    <path fill="#fff" d="M5 19a.967.967 0 0 1-.713-.288A.968.968 0 0 1 4 18a.97.97 0 0 1 .287-.712A.967.967 0 0 1 5 17a.97.97 0 0 1 .713.288c.191.191.287.429.287.712s-.096.52-.287.712A.967.967 0 0 1 5 19Zm4.5 0a.967.967 0 0 1-.713-.288A.968.968 0 0 1 8.5 18a.97.97 0 0 1 .287-.712A.967.967 0 0 1 9.5 17a.97.97 0 0 1 .713.288c.191.191.287.429.287.712s-.096.52-.287.712A.968.968 0 0 1 9.5 19Zm4.5 0a.968.968 0 0 1-.713-.288A.968.968 0 0 1 13 18a.97.97 0 0 1 .287-.712A.968.968 0 0 1 14 17a.97.97 0 0 1 .713.288c.191.191.287.429.287.712s-.096.52-.287.712A.968.968 0 0 1 14 19Zm4.5 0a.968.968 0 0 1-.712-.288A.968.968 0 0 1 17.5 18c0-.283.096-.52.288-.712A.968.968 0 0 1 18.5 17c.283 0 .52.096.712.288.192.191.288.429.288.712s-.096.52-.288.712A.968.968 0 0 1 18.5 19ZM3 15a.967.967 0 0 1-.712-.287A.968.968 0 0 1 2 14a.97.97 0 0 1 .288-.713A.967.967 0 0 1 3 13a.97.97 0 0 1 .712.287c.192.192.288.43.288.713s-.096.52-.288.713A.967.967 0 0 1 3 15Zm4.5 0a.967.967 0 0 1-.713-.287A.968.968 0 0 1 6.5 14c0-.283.096-.52.287-.713A.967.967 0 0 1 7.5 13c.283 0 .52.096.713.287.191.192.287.43.287.713s-.096.52-.287.713A.967.967 0 0 1 7.5 15Zm4.5 0a.968.968 0 0 1-.713-.287A.968.968 0 0 1 11 14c0-.283.096-.52.287-.713A.968.968 0 0 1 12 13c.283 0 .52.096.713.287.191.192.287.43.287.713s-.096.52-.287.713A.968.968 0 0 1 12 15Zm4.5 0a.968.968 0 0 1-.713-.287A.968.968 0 0 1 15.5 14c0-.283.096-.52.287-.713A.968.968 0 0 1 16.5 13a.97.97 0 0 1 .712.287c.192.192.288.43.288.713s-.096.52-.288.713A.968.968 0 0 1 16.5 15Zm4.5 0a.968.968 0 0 1-.712-.287A.968.968 0 0 1 20 14a.97.97 0 0 1 .288-.713A.968.968 0 0 1 21 13a.97.97 0 0 1 .712.287c.192.192.288.43.288.713s-.096.52-.288.713A.968.968 0 0 1 21 15ZM5 11a.967.967 0 0 1-.713-.287A.968.968 0 0 1 4 10c0-.283.096-.52.287-.713A.968.968 0 0 1 5 9c.283 0 .52.096.713.287.191.192.287.43.287.713s-.096.52-.287.713A.967.967 0 0 1 5 11Zm4.5 0a.967.967 0 0 1-.713-.287A.968.968 0 0 1 8.5 10c0-.283.096-.52.287-.713A.968.968 0 0 1 9.5 9c.283 0 .52.096.713.287.191.192.287.43.287.713s-.096.52-.287.713A.968.968 0 0 1 9.5 11Zm4.5 0a.968.968 0 0 1-.713-.287A.968.968 0 0 1 13 10c0-.283.096-.52.287-.713A.968.968 0 0 1 14 9c.283 0 .52.096.713.287.191.192.287.43.287.713s-.096.52-.287.713A.968.968 0 0 1 14 11Zm4.5 0a.968.968 0 0 1-.712-.287A.968.968 0 0 1 17.5 10a.97.97 0 0 1 .288-.713A.968.968 0 0 1 18.5 9a.97.97 0 0 1 .712.287c.192.192.288.43.288.713s-.096.52-.288.713A.968.968 0 0 1 18.5 11ZM3 7a.968.968 0 0 1-.712-.287A.968.968 0 0 1 2 6a.97.97 0 0 1 .288-.713A.968.968 0 0 1 3 5a.97.97 0 0 1 .712.287c.192.192.288.43.288.713s-.096.52-.288.713A.968.968 0 0 1 3 7Zm4.5 0a.968.968 0 0 1-.713-.287A.968.968 0 0 1 6.5 6c0-.283.096-.52.287-.713A.968.968 0 0 1 7.5 5c.283 0 .52.096.713.287.191.192.287.43.287.713s-.096.52-.287.713A.968.968 0 0 1 7.5 7ZM12 7a.968.968 0 0 1-.713-.287A.967.967 0 0 1 11 6c0-.283.096-.52.287-.713A.968.968 0 0 1 12 5c.283 0 .52.096.713.287.191.192.287.43.287.713s-.096.52-.287.713A.968.968 0 0 1 12 7Zm4.5 0a.968.968 0 0 1-.713-.287A.967.967 0 0 1 15.5 6c0-.283.096-.52.287-.713A.968.968 0 0 1 16.5 5a.97.97 0 0 1 .712.287c.192.192.288.43.288.713s-.096.52-.288.713A.968.968 0 0 1 16.5 7ZM21 7a.968.968 0 0 1-.712-.287A.967.967 0 0 1 20 6a.97.97 0 0 1 .288-.713A.968.968 0 0 1 21 5a.97.97 0 0 1 .712.287c.192.192.288.43.288.713s-.096.52-.288.713A.968.968 0 0 1 21 7Z"/>
  </g>
</svg>
