<svg xmlns="http://www.w3.org/2000/svg" width="24" height="24" fill="none" viewBox="0 0 24 24">
  <mask id="a" width="24" height="24" x="0" y="0" maskUnits="userSpaceOnUse" style="mask-type:alpha">
    <path fill="#D9D9D9" d="M0 0h24v24H0z"/>
  </mask>
  <g mask="url(#a)">
    <path fill="#fff" d="M6 15.25a1.2 1.2 0 0 1-.875-.375A1.2 1.2 0 0 1 4.75 14c0-.35.125-.646.375-.887A1.22 1.22 0 0 1 6 12.75c.35 0 .646.12.888.363.241.241.362.537.362.887 0 .333-.12.625-.362.875s-.538.375-.888.375Zm0-8a1.2 1.2 0 0 1-.875-.375A1.2 1.2 0 0 1 4.75 6c0-.35.125-.646.375-.888A1.22 1.22 0 0 1 6 4.75c.35 0 .646.12.888.362.241.242.362.538.362.888 0 .333-.12.625-.362.875S6.35 7.25 6 7.25Zm3 12a1.2 1.2 0 0 1-.875-.375A1.2 1.2 0 0 1 7.75 18c0-.35.125-.646.375-.887A1.22 1.22 0 0 1 9 16.75c.35 0 .646.12.887.363.242.241.363.537.363.887 0 .333-.12.625-.363.875-.241.25-.537.375-.887.375Zm0-8a1.2 1.2 0 0 1-.875-.375A1.2 1.2 0 0 1 7.75 10c0-.35.125-.646.375-.887A1.22 1.22 0 0 1 9 8.75c.35 0 .646.12.887.363.242.241.363.537.363.887 0 .333-.12.625-.363.875-.241.25-.537.375-.887.375Zm3 4a1.2 1.2 0 0 1-.875-.375A1.2 1.2 0 0 1 10.75 14c0-.35.125-.646.375-.887A1.22 1.22 0 0 1 12 12.75c.35 0 .646.12.887.363.242.241.363.537.363.887 0 .333-.12.625-.363.875-.241.25-.537.375-.887.375Zm0-8a1.2 1.2 0 0 1-.875-.375A1.2 1.2 0 0 1 10.75 6c0-.35.125-.646.375-.888A1.22 1.22 0 0 1 12 4.75c.35 0 .646.12.887.362.242.242.363.538.363.888 0 .333-.12.625-.363.875-.241.25-.537.375-.887.375Zm3 12a1.2 1.2 0 0 1-.875-.375A1.2 1.2 0 0 1 13.75 18c0-.35.125-.646.375-.887A1.22 1.22 0 0 1 15 16.75c.35 0 .646.12.887.363.242.241.363.537.363.887 0 .333-.12.625-.363.875-.241.25-.537.375-.887.375Zm0-8a1.2 1.2 0 0 1-.875-.375A1.2 1.2 0 0 1 13.75 10c0-.35.125-.646.375-.887A1.22 1.22 0 0 1 15 8.75c.35 0 .646.12.887.363.242.241.363.537.363.887 0 .333-.12.625-.363.875-.241.25-.537.375-.887.375Zm3 4a1.2 1.2 0 0 1-.875-.375A1.2 1.2 0 0 1 16.75 14c0-.35.125-.646.375-.887A1.22 1.22 0 0 1 18 12.75c.35 0 .646.12.887.363.242.241.363.537.363.887 0 .333-.12.625-.363.875-.241.25-.537.375-.887.375Zm0-8a1.2 1.2 0 0 1-.875-.375A1.2 1.2 0 0 1 16.75 6c0-.35.125-.646.375-.888A1.22 1.22 0 0 1 18 4.75c.35 0 .646.12.887.362.242.242.363.538.363.888 0 .333-.12.625-.363.875-.241.25-.537.375-.887.375Z"/>
  </g>
</svg>
