<svg xmlns="http://www.w3.org/2000/svg" width="24" height="24" fill="none" viewBox="0 0 24 24">
  <mask id="a" width="24" height="24" x="0" y="0" maskUnits="userSpaceOnUse" style="mask-type:alpha">
    <path fill="#D9D9D9" d="M0 0h24v24H0z"/>
  </mask>
  <g mask="url(#a)">
    <path fill="#fff" d="M1 13.75v-2h4v2H1ZM6.35 8.5 3.5 5.675l1.425-1.4L7.75 7.1l-1.4 1.4ZM6 19c-.35 0-.646-.12-.888-.363a1.207 1.207 0 0 1-.362-.887c0-.35.12-.646.362-.887.242-.242.538-.363.888-.363s.646.12.888.363c.241.241.362.537.362.887s-.12.646-.362.887A1.207 1.207 0 0 1 6 19Zm1-5.25v-1c0-1.383.487-2.563 1.463-3.537C9.438 8.238 10.617 7.75 12 7.75s2.563.488 3.537 1.463c.975.975 1.463 2.154 1.463 3.537v1h-2v-1c0-.833-.292-1.542-.875-2.125A2.893 2.893 0 0 0 12 9.75c-.833 0-1.542.292-2.125.875A2.893 2.893 0 0 0 9 12.75v1H7ZM9 23a1.2 1.2 0 0 1-.887-.363 1.207 1.207 0 0 1-.363-.887c0-.35.12-.646.363-.887.241-.242.537-.363.887-.363s.646.12.887.363c.242.241.363.537.363.887s-.12.646-.363.887A1.207 1.207 0 0 1 9 23Zm3-4a1.2 1.2 0 0 1-.887-.363 1.207 1.207 0 0 1-.363-.887c0-.35.12-.646.363-.887.241-.242.537-.363.887-.363s.646.12.887.363c.242.241.363.537.363.887s-.12.646-.363.887A1.207 1.207 0 0 1 12 19ZM11 5.75v-4h2v4h-2ZM15 23a1.2 1.2 0 0 1-.887-.363 1.207 1.207 0 0 1-.363-.887c0-.35.12-.646.363-.887.241-.242.537-.363.887-.363s.646.12.887.363c.242.241.363.537.363.887s-.12.646-.363.887A1.207 1.207 0 0 1 15 23Zm2.65-14.5-1.425-1.4 2.85-2.825 1.4 1.4L17.65 8.5ZM18 19a1.2 1.2 0 0 1-.887-.363 1.207 1.207 0 0 1-.363-.887c0-.35.12-.646.363-.887.241-.242.537-.363.887-.363s.646.12.887.363c.242.241.363.537.363.887s-.12.646-.363.887A1.207 1.207 0 0 1 18 19Zm1-5.25v-2h4v2h-4Z"/>
  </g>
</svg>
