<svg xmlns="http://www.w3.org/2000/svg" width="24" height="24" fill="none" viewBox="0 0 24 24">
  <mask id="a" width="24" height="24" x="0" y="0" maskUnits="userSpaceOnUse" style="mask-type:alpha">
    <path fill="#D9D9D9" d="M0 0h24v24H0z"/>
  </mask>
  <g mask="url(#a)">
    <path fill="#fff" d="M12.5 23c-.417 0-.77-.142-1.063-.425a1.405 1.405 0 0 1-.437-1.05c0-.2.037-.392.113-.575.075-.183.187-.342.337-.475l1.05-.975 1.05.975c.15.133.262.292.337.475.075.183.113.375.113.575 0 .417-.146.767-.438 1.05A1.469 1.469 0 0 1 12.5 23Zm-3.45-1.5L8 20.45l2.95-2.95L12 18.55 9.05 21.5ZM15.5 20 14 18.5l1.5-1.5 1.5 1.5-1.5 1.5Zm-9 0L5 18.5 6.5 17 8 18.5 6.5 20Zm1-4c-1.517 0-2.813-.537-3.888-1.613C2.537 13.313 2 12.017 2 10.5c0-1.383.458-2.592 1.375-3.625s2.05-1.642 3.4-1.825a5.877 5.877 0 0 1 2.188-2.237A5.903 5.903 0 0 1 12 2c1.5 0 2.804.48 3.912 1.438 1.109.958 1.78 2.154 2.013 3.587 1.15.1 2.117.575 2.9 1.425C21.608 9.3 22 10.317 22 11.5c0 1.25-.438 2.313-1.313 3.188C19.813 15.562 18.75 16 17.5 16h-10Zm0-2h10c.7 0 1.292-.242 1.775-.725.483-.483.725-1.075.725-1.775s-.242-1.292-.725-1.775C18.792 9.242 18.2 9 17.5 9H16V8c0-1.1-.392-2.042-1.175-2.825C14.042 4.392 13.1 4 12 4c-.8 0-1.53.217-2.188.65A4.062 4.062 0 0 0 8.325 6.4l-.25.6H7.45a3.507 3.507 0 0 0-2.438 1.063A3.323 3.323 0 0 0 4 10.5c0 .967.342 1.792 1.025 2.475A3.372 3.372 0 0 0 7.5 14Z"/>
  </g>
</svg>
