<svg xmlns="http://www.w3.org/2000/svg" width="24" height="24" fill="none" viewBox="0 0 24 24">
  <mask id="a" width="24" height="24" x="0" y="0" maskUnits="userSpaceOnUse" style="mask-type:alpha">
    <path fill="#D9D9D9" d="M0 0h24v24H0z"/>
  </mask>
  <g mask="url(#a)">
    <path fill="#fff" d="M6.5 19c-.35 0-.646-.12-.888-.363a1.207 1.207 0 0 1-.362-.887c0-.35.12-.646.362-.887.242-.242.538-.363.888-.363s.646.12.888.363c.241.241.362.537.362.887s-.12.646-.362.887A1.207 1.207 0 0 1 6.5 19Zm3 3a1.2 1.2 0 0 1-.887-.363 1.207 1.207 0 0 1-.363-.887c0-.35.12-.646.363-.887.241-.242.537-.363.887-.363s.646.12.887.363c.242.241.363.537.363.887s-.12.646-.363.887A1.207 1.207 0 0 1 9.5 22Zm3-3a1.2 1.2 0 0 1-.887-.363 1.207 1.207 0 0 1-.363-.887c0-.35.12-.646.363-.887.241-.242.537-.363.887-.363s.646.12.887.363c.242.241.363.537.363.887s-.12.646-.363.887A1.207 1.207 0 0 1 12.5 19Zm6 0a1.2 1.2 0 0 1-.887-.363 1.207 1.207 0 0 1-.363-.887c0-.35.12-.646.363-.887.241-.242.537-.363.887-.363s.646.12.887.363c.242.241.363.537.363.887s-.12.646-.363.887A1.207 1.207 0 0 1 18.5 19Zm-3 3a1.2 1.2 0 0 1-.887-.363 1.207 1.207 0 0 1-.363-.887c0-.35.12-.646.363-.887.241-.242.537-.363.887-.363s.646.12.887.363c.242.241.363.537.363.887s-.12.646-.363.887A1.207 1.207 0 0 1 15.5 22Zm-8-7c-1.517 0-2.813-.537-3.888-1.613C2.537 12.313 2 11.017 2 9.5c0-1.383.458-2.592 1.375-3.625s2.05-1.642 3.4-1.825a5.877 5.877 0 0 1 2.188-2.237A5.903 5.903 0 0 1 12 1c1.5 0 2.804.48 3.912 1.438 1.109.958 1.78 2.154 2.013 3.587 1.15.1 2.117.575 2.9 1.425C21.608 8.3 22 9.317 22 10.5c0 1.25-.438 2.313-1.313 3.188C19.813 14.562 18.75 15 17.5 15h-10Zm0-2h10c.7 0 1.292-.242 1.775-.725.483-.483.725-1.075.725-1.775s-.242-1.292-.725-1.775C18.792 8.242 18.2 8 17.5 8H16V7c0-1.1-.392-2.042-1.175-2.825C14.042 3.392 13.1 3 12 3c-.8 0-1.53.217-2.188.65A4.062 4.062 0 0 0 8.325 5.4l-.25.6H7.45a3.507 3.507 0 0 0-2.438 1.063A3.323 3.323 0 0 0 4 9.5c0 .967.342 1.792 1.025 2.475A3.372 3.372 0 0 0 7.5 13Z"/>
  </g>
</svg>
