<svg xmlns="http://www.w3.org/2000/svg" width="24" height="24" fill="none" viewBox="0 0 24 24">
  <mask id="a" width="24" height="24" x="0" y="0" maskUnits="userSpaceOnUse" style="mask-type:alpha">
    <path fill="#D9D9D9" d="M0 0h24v24H0z"/>
  </mask>
  <g mask="url(#a)">
    <path fill="#fff" d="M11.5 20a2.893 2.893 0 0 1-2.125-.875A2.893 2.893 0 0 1 8.5 17h2c0 .283.096.52.287.712.192.192.43.288.713.288s.52-.096.713-.288A.968.968 0 0 0 12.5 17a.968.968 0 0 0-.287-.712A.968.968 0 0 0 11.5 16H2v-2h9.5c.833 0 1.542.292 2.125.875S14.5 16.167 14.5 17s-.292 1.542-.875 2.125A2.893 2.893 0 0 1 11.5 20ZM2 10V8h13.5c.433 0 .792-.142 1.075-.425.283-.283.425-.642.425-1.075 0-.433-.142-.792-.425-1.075C16.292 5.142 15.933 5 15.5 5c-.433 0-.792.142-1.075.425-.283.283-.425.642-.425 1.075h-2c0-.983.338-1.813 1.012-2.487C13.688 3.338 14.517 3 15.5 3c.983 0 1.813.337 2.488 1.013C18.663 4.688 19 5.517 19 6.5c0 .983-.337 1.813-1.012 2.488S16.483 10 15.5 10H2Zm16.5 8v-2c.433 0 .792-.142 1.075-.425.283-.283.425-.642.425-1.075 0-.433-.142-.792-.425-1.075-.283-.283-.642-.425-1.075-.425H2v-2h16.5c.983 0 1.813.338 2.488 1.012.675.675 1.012 1.505 1.012 2.488 0 .983-.337 1.813-1.012 2.488S19.483 18 18.5 18Z"/>
  </g>
</svg>
