<svg xmlns="http://www.w3.org/2000/svg" width="24" height="24" fill="none" viewBox="0 0 24 24">
  <mask id="a" width="24" height="24" x="0" y="0" maskUnits="userSpaceOnUse" style="mask-type:alpha">
    <path fill="#D9D9D9" d="M0 0h24v24H0z"/>
  </mask>
  <g mask="url(#a)">
    <path fill="#fff" d="M18.75 8.65c-.45.45-.967.792-1.55 1.025a4.681 4.681 0 0 1-1.75.35 4.639 4.639 0 0 1-1.725-.338A4.32 4.32 0 0 1 12.2 8.65l-1.875-1.875a2.482 2.482 0 0 0-.85-.563 2.634 2.634 0 0 0-1.95 0c-.317.126-.6.313-.85.563L4.8 8.65 3.375 7.225 5.25 5.35a4.48 4.48 0 0 1 1.525-1.012 4.544 4.544 0 0 1 4.95 1.012L13.6 7.225A2.57 2.57 0 0 0 15.45 8c.333 0 .663-.063.988-.188.325-.125.62-.32.887-.587L19.2 5.35l1.425 1.425L18.75 8.65Zm0 5a4.45 4.45 0 0 1-1.538 1.012 4.735 4.735 0 0 1-1.737.338 4.735 4.735 0 0 1-1.737-.338A4.45 4.45 0 0 1 12.2 13.65l-1.875-1.875a2.482 2.482 0 0 0-.85-.563 2.634 2.634 0 0 0-1.95 0c-.317.126-.6.313-.85.563L4.8 13.65l-1.425-1.4 1.875-1.9a4.48 4.48 0 0 1 1.525-1.012 4.544 4.544 0 0 1 4.95 1.012l1.875 1.875a2.57 2.57 0 0 0 1.85.775c.333 0 .663-.063.988-.188.325-.124.62-.32.887-.587L19.2 10.35l1.425 1.425-1.875 1.875Zm-.025 5c-.45.45-.958.788-1.525 1.013a4.639 4.639 0 0 1-1.725.337 4.735 4.735 0 0 1-1.737-.337A4.45 4.45 0 0 1 12.2 18.65l-1.9-1.875a2.482 2.482 0 0 0-.85-.563 2.634 2.634 0 0 0-1.95 0 2.48 2.48 0 0 0-.85.563L4.775 18.65l-1.4-1.4 1.875-1.9a4.48 4.48 0 0 1 1.525-1.012 4.544 4.544 0 0 1 4.95 1.012l1.875 1.875c.267.267.563.462.888.587.325.125.654.188.987.188a2.57 2.57 0 0 0 1.85-.775L19.2 15.35l1.4 1.425-1.875 1.875Z"/>
  </g>
</svg>
