<svg xmlns="http://www.w3.org/2000/svg" width="24" height="24" fill="none" viewBox="0 0 24 24">
  <mask id="a" width="24" height="24" x="0" y="0" maskUnits="userSpaceOnUse" style="mask-type:alpha">
    <path fill="#D9D9D9" d="M0 0h24v24H0z"/>
  </mask>
  <g mask="url(#a)">
    <path fill="#fff" d="M13.1 23h-2.6l.5-.313c.333-.208.696-.441 1.088-.7.391-.258.754-.491 1.087-.7l.5-.312a8.044 8.044 0 0 0 3.738-1.225 7.817 7.817 0 0 0 2.712-2.875 12.403 12.403 0 0 1-4.075-1.088 11.884 11.884 0 0 1-3.45-2.412 12.087 12.087 0 0 1-2.425-3.45A11.804 11.804 0 0 1 9.1 5.85a7.797 7.797 0 0 0-3.012 2.963A8.048 8.048 0 0 0 5 12.9v.3l-.3.138c-.2.091-.42.187-.663.287-.241.1-.462.196-.662.287l-.3.138a4.187 4.187 0 0 1-.063-.575c-.008-.2-.012-.392-.012-.575 0-2.433.775-4.58 2.325-6.438C6.875 4.604 8.85 3.45 11.25 3a10.1 10.1 0 0 0 .275 4.838 9.867 9.867 0 0 0 2.5 4.137 9.867 9.867 0 0 0 4.138 2.5A10.1 10.1 0 0 0 23 14.75c-.433 2.4-1.583 4.375-3.45 5.925C17.683 22.225 15.533 23 13.1 23ZM6 21h4.5c.417 0 .77-.146 1.063-.438.291-.291.437-.645.437-1.062 0-.417-.142-.77-.425-1.063A1.377 1.377 0 0 0 10.55 18h-1.3l-.5-1.2c-.233-.55-.6-.988-1.1-1.313A2.966 2.966 0 0 0 6 15c-.833 0-1.542.287-2.125.863C3.292 16.438 3 17.15 3 18c0 .833.292 1.542.875 2.125A2.893 2.893 0 0 0 6 21Zm0 2c-1.383 0-2.563-.488-3.538-1.462C1.487 20.562 1 19.383 1 18s.488-2.563 1.462-3.537C3.438 13.488 4.617 13 6 13c1 0 1.912.27 2.738.813A4.907 4.907 0 0 1 10.575 16c.95.033 1.758.387 2.425 1.063.667.675 1 1.487 1 2.437 0 .967-.342 1.792-1.025 2.475A3.372 3.372 0 0 1 10.5 23H6Z"/>
  </g>
</svg>
