<svg xmlns="http://www.w3.org/2000/svg" width="24" height="24" fill="none" viewBox="0 0 24 24">
  <mask id="a" width="24" height="24" x="0" y="0" maskUnits="userSpaceOnUse" style="mask-type:alpha">
    <path fill="#D9D9D9" d="M0 0h24v24H0z"/>
  </mask>
  <g mask="url(#a)">
    <path fill="#fff" d="M9.9 14.1a16.188 16.188 0 0 1-2.675-3.525c-.083.233-.137.47-.162.713a6.64 6.64 0 0 0-.038.712c0 1.383.483 2.558 1.45 3.525.967.967 2.142 1.45 3.525 1.45a5.217 5.217 0 0 0 1.425-.2A16.195 16.195 0 0 1 9.9 14.1Zm1.425-1.4c.85.85 1.8 1.58 2.85 2.188A14.376 14.376 0 0 0 17.55 16.3a6.998 6.998 0 0 1-2.45 1.988 6.882 6.882 0 0 1-3.075.712c-1.95 0-3.604-.68-4.963-2.038C5.704 15.604 5.026 13.95 5.026 12c0-1.083.237-2.108.712-3.075a6.998 6.998 0 0 1 1.988-2.45c.333 1.2.804 2.325 1.412 3.375.609 1.05 1.338 2 2.188 2.85Zm7.25 1.8a19.128 19.128 0 0 1-.988-.275 10.25 10.25 0 0 1-.962-.35c.133-.3.23-.604.288-.912A5.21 5.21 0 0 0 17 12c0-1.383-.488-2.563-1.463-3.537C14.563 7.488 13.383 7 12 7c-.333 0-.654.03-.963.088a4.135 4.135 0 0 0-.912.287 8.637 8.637 0 0 1-.338-.95 27.44 27.44 0 0 1-.262-.975 7.027 7.027 0 0 1 2.5-.45c1.95 0 3.604.68 4.963 2.037 1.358 1.359 2.037 3.013 2.037 4.963a7.027 7.027 0 0 1-.45 2.5ZM11 3V0h2v3h-2Zm0 21v-3h2v3h-2Zm8.075-17.65L17.65 4.925l2.125-2.1 1.425 1.4-2.125 2.125ZM4.225 21.175l-1.425-1.4 2.125-2.125 1.425 1.425-2.125 2.1ZM21 13v-2h3v2h-3ZM0 13v-2h3v2H0Zm19.775 8.2-2.125-2.125 1.425-1.425 2.1 2.125-1.4 1.425ZM4.925 6.35l-2.1-2.125 1.4-1.425L6.35 4.925 4.925 6.35Z"/>
  </g>
</svg>
